PathFileType	4	(X/Y/Z)	Kaydara	
DataRate	CameraRate	NumFrames	NumMarkers	Units	OrigDataRate	OrigDataStartFrame	OrigNumFrames	
60.00	60.00	4	74	mm	60.00	799	204	
Frame#	Time	Z_lasi			Z_rasi			Z_rpsi			Z_lpsi			Z_fneck			Z_bneck			Z_fhead			Z_rhead			Z_lhead			Z_rshld			Z_relbtop			Z_relbext			Z_relblow			Z_rwrext			Z_rwrtop			Z_rwrlow			Z_lshld			Z_lelbext			Z_lelblow			Z_lelbtop			Z_lwrext			Z_lwrtop			Z_lwrlow			Z_rtopleg			Z_ltopleg			Z_rkneefr			Z_rkneebk			Z_rkneeis			Z_lkneefr			Z_lknssbk			Z_lkneeis			Z_rankfr			Z_rankis			Z_rankbk			Z_lankfr			Z_lankbk			Z_lankis			N_lasi			N_rasi			N_rpsi			N_lpsi			N_fneck			N_bneck			N_fhead			N_rhead			N_lhead			N_rshld			N_relbtop			N_relbext			N_relblow			N_rwrext			N_rwrtop			N_rwrlow			N_lshld			N_lelbext			N_lelblow			N_lelbtop			N_lwrext			N_lwrtop			N_lwrlow			N_rtopleg			N_ltopleg			N_rkneefr			N_rkneebk			N_rkneeis			N_lkneefr			N_lknssbk			N_lkneeis			N_rankfr			N_rankis			N_rankbk			N_lankfr			N_lankbk			N_lankis			
		X1	Y1	Z1	X2	Y2	Z2	X3	Y3	Z3	X4	Y4	Z4	X5	Y5	Z5	X6	Y6	Z6	X7	Y7	Z7	X8	Y8	Z8	X9	Y9	Z9	X10	Y10	Z10	X11	Y11	Z11	X12	Y12	Z12	X13	Y13	Z13	X14	Y14	Z14	X15	Y15	Z15	X16	Y16	Z16	X17	Y17	Z17	X18	Y18	Z18	X19	Y19	Z19	X20	Y20	Z20	X21	Y21	Z21	X22	Y22	Z22	X23	Y23	Z23	X24	Y24	Z24	X25	Y25	Z25	X26	Y26	Z26	X27	Y27	Z27	X28	Y28	Z28	X29	Y29	Z29	X30	Y30	Z30	X31	Y31	Z31	X32	Y32	Z32	X33	Y33	Z33	X34	Y34	Z34	X35	Y35	Z35	X36	Y36	Z36	X37	Y37	Z37	X38	Y38	Z38	X39	Y39	Z39	X40	Y40	Z40	X41	Y41	Z41	X42	Y42	Z42	X43	Y43	Z43	X44	Y44	Z44	X45	Y45	Z45	X46	Y46	Z46	X47	Y47	Z47	X48	Y48	Z48	X49	Y49	Z49	X50	Y50	Z50	X51	Y51	Z51	X52	Y52	Z52	X53	Y53	Z53	X54	Y54	Z54	X55	Y55	Z55	X56	Y56	Z56	X57	Y57	Z57	X58	Y58	Z58	X59	Y59	Z59	X60	Y60	Z60	X61	Y61	Z61	X62	Y62	Z62	X63	Y63	Z63	X64	Y64	Z64	X65	Y65	Z65	X66	Y66	Z66	X67	Y67	Z67	X68	Y68	Z68	X69	Y69	Z69	X70	Y70	Z70	X71	Y71	Z71	X72	Y72	Z72	X73	Y73	Z73	X74	Y74	Z74	

103	13.300	-888.29605	976.08185	788.10738	-928.91830	994.02901	1027.93015	-1118.91098	1050.97214	956.20110	-1075.11192	1035.11536	767.92740	-867.62314	1436.17355	843.58200	-956.81076	1512.15118	872.82158	-747.71088	1565.49759	803.37265	-862.40562	1618.74969	948.32855	-921.56128	1623.30658	832.24014	-986.50757	1384.85092	1095.93338	-1058.12851	1091.20583	1138.44009	-1032.24075	1078.22487	1074.46434	-977.40303	1110.87852	1154.86954	-967.50290	845.31685	1178.98621	-925.61020	856.03851	1195.81093	-906.49620	866.79565	1154.86771	-940.24887	1397.00485	660.79300	-998.58292	1075.35843	701.50139	-946.35880	1092.48314	625.73357	-1025.17715	1067.33627	632.88208	-928.06366	862.16431	632.36092	-887.42996	875.12100	632.83607	-885.39139	878.25714	678.08182	-1045.44083	891.18759	1073.30101	-959.25278	889.86191	730.93124	-944.97307	432.20802	1105.37048	-1010.34767	489.19044	1135.57617	-985.26527	470.01858	1020.23788	-910.97946	403.57872	911.24283	-952.96280	415.66856	835.82199	-1016.09879	433.81077	935.04471	-1150.46982	244.30347	1059.31786	-1180.71579	280.93756	992.30568	-1215.85892	287.04309	1055.87601	-1011.63254	149.58730	888.76175	-1067.24319	160.24178	924.49646	-1004.11057	164.51229	964.89212	71.80093	990.14961	-648.23013	170.86573	993.14224	-854.58435	383.02547	1077.18544	-727.02461	245.00050	1056.79039	-530.45143	113.38483	1470.63400	-812.04659	226.27062	1540.89417	-746.94939	39.72403	1697.14752	-840.04715	209.42354	1657.70142	-878.17772	168.69846	1682.14081	-727.98447	330.03563	1424.84344	-922.44514	474.26941	1145.98999	-885.93346	421.87210	1130.14137	-821.59515	406.49506	1141.06491	-917.85339	413.11230	904.32037	-967.45049	390.65941	923.22868	-1009.55795	347.32468	931.44302	-993.91792	49.18990	1464.69971	-583.07747	-22.07074	1123.03749	-556.81252	57.52728	1153.72520	-562.48829	17.95684	1180.91003	-498.19176	2.07761	925.38963	-464.60415	-38.47599	922.61604	-499.36291	-10.16379	913.19916	-540.30327	336.08860	893.64502	-879.54704	127.33149	856.91566	-530.99072	146.63841	477.09480	-925.41847	258.01916	504.97749	-889.52965	176.45950	474.47319	-813.64922	117.12811	413.82664	-686.47026	144.71687	483.45871	-603.86871	212.62707	471.38134	-708.03429	211.59273	171.96283	-909.61876	228.14785	175.49156	-838.16223	278.52856	172.85191	-900.83839	335.78396	258.70880	-481.74908	399.95308	312.25454	-510.60631	363.22155	256.75879	-545.55420 
104	13.317	-875.29579	976.19415	787.55684	-908.35426	994.88594	1031.78574	-1101.94954	1052.15309	962.04636	-1062.31056	1035.94543	772.76978	-854.56772	1437.91824	845.30945	-943.54530	1513.40240	875.82016	-735.02274	1567.32956	804.32838	-849.07684	1620.56091	950.16617	-908.68896	1625.02228	834.44153	-969.17587	1385.47577	1099.17252	-1039.10309	1091.71219	1142.44957	-1013.58337	1079.26010	1078.36052	-958.45245	1112.06558	1158.86528	-945.53658	846.44485	1181.99837	-904.46564	858.15437	1199.40567	-884.34441	868.78212	1158.59261	-929.73381	1399.43069	663.64189	-984.86961	1077.52739	703.61603	-933.15681	1095.39497	627.21928	-1011.55647	1068.30841	635.06977	-907.88818	866.03592	636.08673	-867.76497	880.27229	636.14418	-865.24590	884.08386	681.23619	-1023.16505	893.44795	1078.02307	-949.63020	889.97124	732.59697	-911.16882	435.92541	1109.32594	-976.98616	491.19041	1141.01440	-955.69214	470.83004	1025.57777	-906.28166	403.27782	911.04340	-949.38789	416.31618	835.74081	-1010.99464	435.06699	936.67114	-1109.66736	239.33563	1074.00002	-1144.60693	272.95506	1008.46207	-1177.28554	279.32184	1073.80005	-1010.50133	150.45465	889.09996	-1066.28044	161.31359	924.27681	-1002.64191	165.14038	964.89883	60.12710	998.77640	-659.00459	155.61068	1000.08087	-865.50598	370.24487	1082.90352	-743.43445	235.35688	1064.92264	-544.52118	97.17081	1477.90833	-820.34569	211.94393	1547.69897	-758.44833	24.25631	1704.58832	-847.57156	193.17310	1664.27490	-888.52982	154.93193	1689.22577	-737.69569	310.14389	1432.89490	-937.75833	455.23521	1153.76732	-908.65707	405.45830	1137.59163	-841.82335	386.22028	1148.21304	-937.47803	395.41645	910.31036	-984.42261	370.86426	928.19160	-1026.68098	328.13900	935.37773	-1008.89496	40.47546	1471.24664	-588.71368	-28.80866	1131.04851	-556.27697	48.01144	1160.61752	-562.84901	13.99685	1190.03967	-496.75995	-1.16004	937.31606	-450.28870	-43.00049	932.46124	-482.86816	-17.04432	920.88371	-524.70200	323.12004	897.47551	-892.27280	116.14260	865.14282	-539.72054	143.19560	475.69706	-927.82700	255.05169	505.90130	-894.75449	176.36459	474.98531	-816.68938	85.14350	424.73064	-704.11469	117.45203	492.09942	-621.30032	181.19501	479.81236	-727.98813	210.02285	171.52346	-909.31694	228.19233	176.05480	-838.09555	276.93520	172.82654	-902.19704	307.69812	260.60146	-509.88659	372.34673	313.89141	-539.91695	332.87640	259.63148	-573.61900 
105	13.333	-862.81754	976.05438	787.50000	-889.25163	995.06096	1033.63426	-1085.01152	1052.57347	967.73666	-1049.88640	1036.31775	777.48360	-841.26366	1439.18198	847.00378	-929.84161	1514.10126	878.69820	-722.26463	1568.91418	805.45677	-835.21202	1621.91696	951.93092	-896.11267	1626.19781	836.50223	-951.30890	1385.80673	1102.45728	-1019.55338	1091.80405	1146.89087	-995.02098	1079.40620	1082.55676	-939.00993	1112.66533	1162.74506	-923.47504	846.77696	1184.76021	-882.87285	858.87955	1202.88040	-862.51274	870.39291	1162.12410	-919.49989	1401.28159	666.28197	-970.66124	1078.89618	705.40115	-920.18005	1097.80403	629.11011	-997.95990	1068.82042	637.24548	-887.78069	869.60381	639.56757	-848.13530	885.19211	639.22222	-845.43205	889.41154	684.16649	-1000.98686	894.94087	1082.32506	-940.00778	890.08041	734.26277	-877.98607	439.26464	1112.56950	-944.58931	492.55375	1145.31509	-927.08191	470.77122	1030.19363	-902.35306	403.44894	911.03821	-946.18698	416.71768	836.45004	-1006.05705	436.83666	938.29857	-1068.59444	233.25602	1089.44092	-1106.39267	263.66627	1024.94102	-1137.47383	270.23481	1090.67070	-1009.17709	151.37053	889.56413	-1064.53934	162.76119	925.45395	-1000.68001	165.76582	965.77950	48.81098	1007.92320	-669.52637	140.04856	1007.72499	-876.03096	357.03568	1088.49823	-759.56398	226.05145	1072.81364	-557.94609	80.96498	1485.46097	-828.23250	197.70216	1554.83780	-769.37225	8.53108	1712.04971	-854.64294	176.77782	1671.12305	-898.09685	141.01083	1696.43951	-746.76575	289.91869	1441.36215	-952.43576	435.98705	1162.16797	-930.23735	389.66446	1146.16623	-860.38445	365.73757	1155.96436	-955.76714	378.49262	916.87912	-1002.16675	351.32450	933.88008	-1042.55745	309.28295	940.14618	-1023.07785	32.26819	1478.24234	-593.66699	-35.40415	1140.00984	-554.41727	39.00861	1168.38066	-561.77174	9.80871	1200.19928	-494.11793	-3.03915	949.50935	-436.79405	-46.79486	943.91571	-467.41104	-23.38456	930.41374	-509.97097	310.56923	901.27075	-904.11682	100.55803	875.14236	-553.27618	140.85417	474.99241	-929.49089	252.29313	506.83060	-897.75482	175.38155	476.15654	-818.70918	53.97367	436.38241	-720.12543	92.11746	500.04761	-637.31289	151.13548	488.27091	-746.41579	209.13902	171.76270	-909.17519	227.90998	176.70176	-838.18253	275.97717	173.29870	-902.70996	277.89890	259.81085	-537.49111	343.80260	312.07830	-569.35902	301.05860	260.18505	-602.27570 
106	13.350	-850.25925	975.77171	787.64114	-875.46036	996.12480	1025.60509	-1067.40005	1052.44019	973.25035	-1037.57912	1036.49796	782.22839	-827.81944	1439.84558	848.69156	-915.97336	1514.40109	881.74889	-709.53964	1570.05814	806.37115	-821.39122	1622.73682	953.70750	-882.88193	1626.69937	838.81348	-933.27423	1385.69031	1105.64270	-999.89914	1091.59386	1151.47934	-975.87517	1079.55002	1086.83334	-919.10194	1112.79114	1166.13914	-901.54884	846.82823	1187.45605	-861.28448	859.32663	1205.99693	-841.27342	871.21262	1165.03418	-909.34090	1402.52563	669.03473	-956.96243	1079.72519	707.45934	-907.00005	1099.57436	631.12312	-984.16138	1068.79807	639.33208	-867.87231	872.75833	642.78046	-828.70163	889.55391	642.12440	-825.81772	894.33624	686.87668	-979.36752	896.36169	1086.72287	-930.38521	890.18967	735.92850	-845.97725	442.28092	1114.54636	-913.19138	493.23219	1148.84705	-899.88106	470.14725	1034.26880	-897.65984	403.53966	910.66734	-943.03101	417.49687	837.03522	-1000.07187	438.38398	940.11368	-1024.85703	226.25322	1104.02138	-1068.36853	254.34175	1039.36913	-1095.98488	259.42066	1107.09877	-1007.83302	152.20171	889.97490	-1062.70973	164.10160	926.28922	-998.53004	166.79226	965.99785	37.14988	1017.20230	-678.91304	124.20358	1015.16678	-886.69350	343.44738	1093.58826	-775.49164	217.18784	1080.06546	-571.30363	64.68207	1492.86819	-835.69931	183.40416	1561.72211	-779.54224	-7.19297	1719.38477	-860.87601	160.07656	1677.73132	-907.22450	126.85266	1703.38638	-755.32135	269.71584	1449.75784	-966.41113	416.59149	1170.80994	-950.95078	373.47176	1155.80322	-878.67661	345.34485	1163.72902	-973.14674	362.10670	924.19571	-1019.59099	332.00729	939.78477	-1057.76466	290.59488	945.31631	-1036.37268	24.26938	1485.38895	-598.29811	-41.81995	1149.49806	-552.44274	29.60932	1176.86073	-560.92968	6.37639	1210.69580	-491.01086	-4.09641	961.97952	-425.87490	-50.03673	955.93941	-452.87781	-29.42421	940.70091	-496.02371	298.09668	904.75891	-914.98978	89.43563	884.03526	-561.65855	139.56584	474.59778	-930.74234	250.26457	507.90298	-898.51166	173.53794	476.58226	-818.19313	24.15550	448.42121	-734.60152	67.27396	507.64763	-651.53770	121.99732	496.74900	-763.18222	208.64717	172.24186	-909.01306	226.60034	177.43969	-838.12714	275.25202	173.92412	-902.26891	245.40672	256.33020	-564.53236	313.59493	307.29181	-598.26378	267.39246	258.45089	-630.92216 
